<svg xmlns="http://www.w3.org/2000/svg" version="1.1" xmlns:xlink="http://www.w3.org/1999/xlink" xmlns:svgjs="http://svgjs.dev/svgjs" width="2000" height="777" viewBox="0 0 2000 777"><g transform="matrix(1,0,0,1,-1.2121212121212466,0.49530299615440754)"><svg viewBox="0 0 396 154" data-background-color="#dee7e9" preserveAspectRatio="xMidYMid meet" height="777" width="2000" xmlns="http://www.w3.org/2000/svg" xmlns:xlink="http://www.w3.org/1999/xlink"><g id="tight-bounds" transform="matrix(1,0,0,1,0.2400000000000091,-0.09816816139996831)"><svg viewBox="0 0 395.52 154.19633632279994" height="154.19633632279994" width="395.52"><g><svg viewBox="0 0 699.6371317634528 272.7586025316456" height="154.19633632279994" width="395.52"><g><rect width="9.571773641326178" height="272.7586025316456" x="269.4883590610633" y="0" fill="#3234b5" opacity="1" stroke-width="0" stroke="transparent" fill-opacity="1" class="rect-qz-0" data-fill-palette-color="primary" rx="1%" id="qz-0" data-palette-color="#3234b5"></rect></g><g transform="matrix(1,0,0,1,304.1171317634528,22.72988354430379)"><svg viewBox="0 0 395.52 227.298835443038" height="227.298835443038" width="395.52"><g id="textblocktransform"><svg viewBox="0 0 395.52 227.298835443038" height="227.298835443038" width="395.52" id="textblock"><g><svg viewBox="0 0 395.52 227.298835443038" height="227.298835443038" width="395.52"><g transform="matrix(1,0,0,1,0,0)"><svg width="395.52" viewBox="2.1500000000000017 -33.7 158 79.65" height="227.298835443038" data-palette-color="#3234b5"><svg></svg><svg></svg><g class="wordmark-text-0" data-fill-palette-color="primary" id="text-0"><path d="M16.15 0v0h-12.3v-33.7h10.15c3.467 0 6.243 0.8 8.33 2.4 2.08 1.6 3.12 3.75 3.12 6.45v0c0 1.933-0.54 3.607-1.62 5.02-1.087 1.42-2.48 2.313-4.18 2.68v0c1.867 0.3 3.46 1.14 4.78 2.52 1.313 1.387 1.97 3.263 1.97 5.63v0c0 2.7-0.89 4.873-2.67 6.52-1.787 1.653-4.313 2.48-7.58 2.48zM14-30.25v0h-6.1v11.5h5.4c2.7 0 4.7-0.567 6-1.7 1.3-1.133 1.95-2.6 1.95-4.4v0c0-1.567-0.607-2.86-1.82-3.88-1.22-1.013-3.03-1.52-5.43-1.52zM14.8-15.3v0h-6.9v11.85h7.65c2.133 0 3.777-0.493 4.93-1.48 1.147-0.98 1.72-2.42 1.72-4.32 0-1.9-0.64-3.383-1.92-4.45-1.287-1.067-3.113-1.6-5.48-1.6zM50.7-5v3.7c-1.967 1.033-4.367 1.55-7.2 1.55v0c-3.833 0-6.923-1.177-9.27-3.53-2.353-2.347-3.53-5.453-3.53-9.32v0c0-4.033 1.05-7.217 3.15-9.55 2.1-2.333 4.8-3.5 8.1-3.5v0c3.167 0 5.683 1.017 7.55 3.05 1.867 2.033 2.8 4.917 2.8 8.65v0c0 1.067-0.083 2.05-0.25 2.95v0h-17.3c0.3 2.5 1.25 4.417 2.85 5.75 1.6 1.333 3.7 2 6.3 2v0c2.833 0 5.1-0.583 6.8-1.75zM41.95-22.2v0c-1.9 0-3.517 0.683-4.85 2.05-1.333 1.367-2.117 3.317-2.35 5.85v0h13.6v-1c0-2.1-0.567-3.777-1.7-5.03-1.133-1.247-2.7-1.87-4.7-1.87zM66.05-3.05v0c1.8 0 3.233-0.51 4.3-1.53 1.067-1.013 1.6-2.303 1.6-3.87v0-3.25h-4.4c-2.133 0-3.733 0.417-4.8 1.25-1.067 0.833-1.6 1.883-1.6 3.15 0 1.267 0.417 2.29 1.25 3.07 0.833 0.787 2.05 1.18 3.65 1.18zM72 0v-3c-1.3 2.167-3.667 3.25-7.1 3.25v0c-2.367 0-4.273-0.7-5.72-2.1-1.453-1.4-2.18-3.167-2.18-5.3v0c0-2.433 0.927-4.327 2.78-5.68 1.847-1.347 4.37-2.02 7.57-2.02v0h4.6v-1.3c0-2-0.45-3.51-1.35-4.53-0.9-1.013-2.417-1.52-4.55-1.52v0c-2.7 0-5.1 0.717-7.2 2.15v0-3.95c1.9-1.167 4.4-1.75 7.5-1.75v0c6.367 0 9.55 3.233 9.55 9.7v0 16.05zM102.6-25.35v25.35h-3.95v-4.4c-1.333 3.133-3.983 4.7-7.95 4.7v0c-2.5 0-4.473-0.743-5.92-2.23-1.453-1.48-2.18-3.47-2.18-5.97v0-17.45h3.95v16.45c0 1.833 0.467 3.233 1.4 4.2 0.933 0.967 2.2 1.45 3.8 1.45v0c2.1 0 3.777-0.733 5.03-2.2 1.247-1.467 1.87-3.45 1.87-5.95v0-13.95zM122.6-4.4v3.75c-1.1 0.6-2.333 0.9-3.7 0.9v0c-5 0-7.5-2.55-7.5-7.65v0-14.75h-4.05v-3.2h4.05v-6.3h3.95v6.3h7v3.2h-7v14.85c0 2.7 1.267 4.05 3.8 4.05v0c1.3 0 2.45-0.383 3.45-1.15zM148.5-25.35l-9.15 24.7c-1.3 3.433-2.843 5.85-4.63 7.25-1.78 1.4-3.82 2.1-6.12 2.1v0c-0.867 0-1.567-0.083-2.1-0.25v0-3.55c0.5 0.133 1.067 0.2 1.7 0.2v0c3.367 0 5.75-1.917 7.15-5.75v0l-10.25-24.7h4.45l3.3 8.35 4.45 11.5c0.267-0.867 1.6-4.7 4-11.5v0l2.95-8.35z" fill="#3234b5" fill-rule="nonzero" stroke="none" stroke-width="1" stroke-linecap="butt" stroke-linejoin="miter" stroke-miterlimit="10" stroke-dasharray="" stroke-dashoffset="0" font-family="none" font-weight="none" font-size="none" text-anchor="none" style="mix-blend-mode: normal" data-fill-palette-color="primary" opacity="1"></path><path transform="translate(0,45.4)" d="M21.1-4.65v3.75c-1.6 0.967-3.567 1.45-5.9 1.45v0c-4 0-7.173-1.277-9.52-3.83-2.353-2.547-3.53-5.653-3.53-9.32v0c0-3.6 1.177-6.7 3.53-9.3 2.347-2.6 5.553-3.9 9.62-3.9v0c2.167 0 4.1 0.467 5.8 1.4v0 3.75c-1.533-1.033-3.333-1.55-5.4-1.55v0c-2.867 0-5.157 0.923-6.87 2.77-1.72 1.853-2.58 4.147-2.58 6.88v0c0.033 2.733 0.867 5.007 2.5 6.82 1.633 1.82 3.95 2.73 6.95 2.73v0c1.933 0 3.733-0.55 5.4-1.65zM49.5-12.6v0c0 3.767-1.067 6.883-3.2 9.35-2.133 2.467-5.067 3.7-8.8 3.7v0c-3.633 0-6.507-1.227-8.62-3.68-2.12-2.447-3.18-5.537-3.18-9.27v0c0-3.767 1.093-6.91 3.28-9.43 2.18-2.513 5.02-3.77 8.52-3.77v0c3.833 0 6.793 1.233 8.88 3.7 2.08 2.467 3.12 5.6 3.12 9.4zM29.8-12.55v0c0 2.633 0.7 4.873 2.1 6.72 1.4 1.853 3.267 2.78 5.6 2.78v0c2.533 0 4.483-0.91 5.85-2.73 1.367-1.813 2.05-4.07 2.05-6.77v0c0-2.8-0.65-5.11-1.95-6.93-1.3-1.813-3.283-2.72-5.95-2.72v0c-2.4 0-4.283 0.933-5.65 2.8-1.367 1.867-2.05 4.15-2.05 6.85zM75.3-17.45v17.45h-3.95v-16.4c0-1.867-0.473-3.293-1.42-4.28-0.953-0.98-2.197-1.47-3.73-1.47v0c-1.9 0-3.54 0.733-4.92 2.2-1.387 1.467-2.08 3.5-2.08 6.1v0 13.85h-3.9v-25.35h3.9v4.4c1.5-3.167 4.167-4.75 8-4.75v0c2.467 0 4.433 0.75 5.9 2.25 1.467 1.5 2.2 3.5 2.2 6zM95-4.4v3.75c-1.1 0.6-2.333 0.9-3.7 0.9v0c-5 0-7.5-2.55-7.5-7.65v0-14.75h-4.05v-3.2h4.05v-6.3h3.95v6.3h7v3.2h-7v14.85c0 2.7 1.267 4.05 3.8 4.05v0c1.3 0 2.45-0.383 3.45-1.15zM119.25-5v3.7c-1.967 1.033-4.367 1.55-7.2 1.55v0c-3.833 0-6.923-1.177-9.27-3.53-2.353-2.347-3.53-5.453-3.53-9.32v0c0-4.033 1.05-7.217 3.15-9.55 2.1-2.333 4.8-3.5 8.1-3.5v0c3.167 0 5.683 1.017 7.55 3.05 1.867 2.033 2.8 4.917 2.8 8.65v0c0 1.067-0.083 2.05-0.25 2.95v0h-17.3c0.3 2.5 1.25 4.417 2.85 5.75 1.6 1.333 3.7 2 6.3 2v0c2.833 0 5.1-0.583 6.8-1.75zM110.5-22.2v0c-1.9 0-3.517 0.683-4.85 2.05-1.333 1.367-2.117 3.317-2.35 5.85v0h13.6v-1c0-2.1-0.567-3.777-1.7-5.03-1.133-1.247-2.7-1.87-4.7-1.87zM142.1-6.75v0c0 2.167-0.757 3.883-2.27 5.15-1.52 1.267-3.597 1.9-6.23 1.9v0c-3.067 0-5.55-0.517-7.45-1.55v0-3.85c2.233 1.333 4.633 2 7.2 2v0c1.533 0 2.7-0.3 3.5-0.9 0.8-0.6 1.2-1.417 1.2-2.45v0c0-1.2-0.44-2.133-1.32-2.8-0.887-0.667-2.363-1.417-4.43-2.25v0c-1.9-0.733-3.423-1.65-4.57-2.75-1.153-1.1-1.73-2.583-1.73-4.45v0c0-2.1 0.793-3.777 2.38-5.03 1.58-1.247 3.553-1.87 5.92-1.87v0c2.633 0 4.75 0.367 6.35 1.1v0 3.75c-1.533-0.933-3.633-1.4-6.3-1.4v0c-1.333 0-2.39 0.307-3.17 0.92-0.787 0.62-1.18 1.413-1.18 2.38v0c0 0.6 0.117 1.123 0.35 1.57 0.233 0.453 0.693 0.897 1.38 1.33 0.68 0.433 1.18 0.723 1.5 0.87 0.313 0.153 1.003 0.463 2.07 0.93v0c2.133 0.867 3.8 1.85 5 2.95 1.2 1.1 1.8 2.583 1.8 4.45zM160.15-4.4v3.75c-1.1 0.6-2.333 0.9-3.7 0.9v0c-5 0-7.5-2.55-7.5-7.65v0-14.75h-4.05v-3.2h4.05v-6.3h3.95v6.3h7v3.2h-7v14.85c0 2.7 1.267 4.05 3.8 4.05v0c1.3 0 2.45-0.383 3.45-1.15z" fill="#3234b5" fill-rule="nonzero" stroke="none" stroke-width="1" stroke-linecap="butt" stroke-linejoin="miter" stroke-miterlimit="10" stroke-dasharray="" stroke-dashoffset="0" font-family="none" font-weight="none" font-size="none" text-anchor="none" style="mix-blend-mode: normal" data-fill-palette-color="primary" opacity="1"></path></g></svg></g></svg></g></svg></g></svg></g><g transform="matrix(1,0,0,1,0,13.571454013556476)"><svg viewBox="0 0 244.43135999999998 245.61569450453263" height="245.61569450453263" width="244.43135999999998"><g><svg xmlns="http://www.w3.org/2000/svg" xmlns:xlink="http://www.w3.org/1999/xlink" version="1.1" x="0" y="0" viewBox="5.214 5 89.572 90.006" enable-background="new 0 0 100 100" xml:space="preserve" height="245.61569450453263" width="244.43135999999998" class="icon-icon-0" data-fill-palette-color="accent" id="icon-0"><path d="M92.854 20.7l-7.541 22.31c-0.154 0.449-0.643 0.691-1.091 0.539L69.42 38.497c-0.216-0.074-0.39-0.229-0.491-0.437-0.103-0.205-0.117-0.438-0.044-0.657l0.002-0.003 7.54-22.306c0.074-0.22 0.227-0.395 0.434-0.496 0.204-0.103 0.437-0.119 0.656-0.043l14.8 5.052C92.764 19.76 93.004 20.249 92.854 20.7zM64.569 36.064h2.453l7.329-21.677c0.264-0.777 0.808-1.403 1.539-1.764 0.73-0.363 1.559-0.417 2.329-0.152l2.837 0.968v-1.798c0-0.474-0.383-0.862-0.856-0.862H64.569c-0.474 0-0.858 0.388-0.858 0.862v23.563C63.711 35.678 64.096 36.064 64.569 36.064zM68.717 40.582c-0.771-0.262-1.396-0.812-1.755-1.545-0.12-0.248-0.204-0.505-0.255-0.77h-2.138c-1.681 0-3.05-1.375-3.05-3.062V16.407c-8.033 2.922-9.144 3.328-9.343 3.382l0.092-0.017c-0.212 0.079-0.387 0.237-0.482 0.446-0.099 0.207-0.108 0.443-0.029 0.659l7.979 22.154c0.079 0.216 0.236 0.389 0.444 0.488 0.207 0.096 0.44 0.106 0.656 0.029l8.021-2.917C68.772 40.599 68.717 40.582 68.717 40.582zM8.06 63.499l11.835-9.781c1.109-1.027 3.124-1.625 4.826-1.655 0.426-0.027 0.853 0 1.192 0.057l13.452 2.424c0.88 0.171 2.158 0.914 2.385 2.053v0.628c-0.084 0.484-0.397 1.054-0.993 1.653l-9.651 9.583c-2.184 2.083-4.143 2.966-6.385 2.795-0.541-0.028-1.107-0.142-1.702-0.313L8.26 66.893C6.415 66.379 6.754 64.612 8.06 63.499zM20.975 62.53c0.482 0.74 2.185 0.854 3.746 0.542 0.482-0.085 0.965-0.2 1.391-0.4 1.759-0.656 3.292-2.225 2.044-3.42-0.768-0.714-2.185-0.685-3.435-0.429-0.795 0.199-1.504 0.429-1.988 0.656C21.512 60.076 20.32 61.533 20.975 62.53zM27.445 92.903l-0.767-0.315-3.546-1.424-7.098-2.853h-0.027l-0.937-0.371c-1.164-0.456-2.328-1.996-3.038-3.422-0.084-0.199-0.141-0.341-0.227-0.514L6.869 71.571c-0.369-0.885-1.76-4.535 1.618-3.452l3.546 1.027 3.975 1.084h0.027l6.188 1.74c0.311 0.084 0.624 0.199 0.909 0.285 1.785 0.54 2.808 1.056 3.546 2.023 0.597 0.827 0.995 1.968 1.504 3.737l3.776 12.947c0.056 0.229 0.084 0.429 0.084 0.601v0.285C31.929 93.702 28.978 93.529 27.445 92.903zM12.033 75.82c0.85 0.543 1.816 0.884 2.385 0.399 0.964-0.826-0.056-2.481-1.078-3.736-0.397-0.483-0.824-0.912-1.307-1.227-0.794-0.57-1.674-0.827-2.355-0.37-1.051 0.685 0.144 2.909 0.938 3.792C10.928 75.021 11.466 75.478 12.033 75.82zM17.087 83.15c-0.313-0.343-0.682-0.658-1.052-0.914 0 0 0 0-0.027 0-0.796-0.571-1.619-0.885-2.271-0.429-0.938 0.628 0.312 2.653 1.135 3.422 0.285 0.258 0.712 0.628 1.137 0.913 0.027 0 0.027 0 0.027 0 0.795 0.542 1.73 0.913 2.299 0.459C19.214 85.915 18.165 84.206 17.087 83.15zM23.133 79.584c0.965 0.541 2.042 0.826 2.694 0.284 1.078-0.913-0.027-2.595-1.221-4.049-0.427-0.514-0.937-0.97-1.474-1.253-0.909-0.544-1.875-0.714-2.643-0.202-1.219 0.77 0.172 2.937 0.995 3.907C21.826 78.699 22.448 79.212 23.133 79.584zM27.842 86.857c-0.312-0.255-0.708-0.57-1.163-0.828-0.879-0.484-1.818-0.799-2.499-0.313-1.077 0.685 0.284 2.737 1.109 3.564 0.341 0.286 0.822 0.685 1.39 1.027 0.907 0.515 1.959 0.884 2.555 0.427C30.188 90.005 28.751 87.655 27.842 86.857zM48.079 75.021v0.543c-0.027 1.911-0.682 3.537-2.242 5.417l-1.646 1.939-2.215 2.652-2.667 3.196-2.1 2.48c-0.2 0.257-0.397 0.486-0.598 0.627-0.993 0.883-2.072 0.571-2.837-0.371-0.426-0.542-0.796-1.227-1.022-2.081l-3.634-12.806c-0.169-0.57-0.254-1.141-0.284-1.712v-0.483c0.058-1.482 0.682-2.996 2.045-4.393l2.896-2.824 2.837-2.821 2.697-2.683 2.214-2.195c0.143-0.171 0.312-0.285 0.453-0.428 0.795-0.571 1.561-0.656 2.215-0.315 0.707 0.374 1.248 1.171 1.446 2.31l2.157 11.552C47.965 73.479 48.079 74.279 48.079 75.021zM35.705 75.393c0.537-1.74 0.708-4.192-0.711-4.822-0.425-0.169-0.822-0.112-1.219 0.115-0.965 0.515-1.789 1.94-2.072 2.825-0.369 1.196-0.568 3.905 0.794 4.448 0.425 0.141 0.853 0.085 1.278-0.058C34.598 77.502 35.335 76.533 35.705 75.393zM37.775 82.178c-0.397-0.197-0.766-0.142-1.163 0.115-0.794 0.543-1.477 1.826-1.789 2.652-0.425 1.168-0.595 3.652 0.541 4.05 0.426 0.115 0.851 0.03 1.248-0.227 0.682-0.399 1.278-1.285 1.675-2.339C38.911 84.747 39.025 82.808 37.775 82.178zM40.302 72.083c-0.341-0.169-0.681-0.113-0.992 0.086-0.852 0.484-1.534 1.938-1.846 2.822-0.367 1.17-0.397 3.68 0.738 3.995 0.368 0.086 0.766 0.027 1.107-0.173 0.711-0.425 1.333-1.338 1.701-2.48C41.551 74.621 41.581 72.653 40.302 72.083zM41.977 68.918c0.795-0.37 1.42-1.426 1.761-2.681 0.481-1.74 0.255-3.737-0.937-4.221-0.283-0.114-0.569-0.084-0.824 0.058-0.853 0.456-1.561 2.024-1.814 2.965-0.343 1.198-0.229 3.765 0.936 4.021C41.411 69.117 41.693 69.06 41.977 68.918zM45.271 73.424c-0.343-0.171-0.711-0.057-1.079 0.228-0.711 0.571-1.42 1.825-1.646 2.566-0.341 1.112-0.368 3.366 0.651 3.65 0.341 0.085 0.682 0.03 0.995-0.143 0.68-0.37 1.27-1.247 1.589-2.28C46.264 75.876 46.264 73.938 45.271 73.424zM50 5v45.003H5.214V5H50zM42.293 28.466c0-10.663-8.643-19.356-19.283-19.356 1.08 0.925 1.602 2.132 1.602 3.582 0 1.046-0.08 1.812-0.76 2.656-1.041 1.247-2.284 2.334-3.404 3.5-2.003 2.092-4.004 4.226-6.008 6.319-0.96 1.007-1.521 1.971-1.521 3.379 0 2.535 2.083 4.59 4.566 4.59 2.683 0 6.166-3.624 8.449-3.624 1.16 0 2.16 0.967 2.16 2.132 0 0.563-0.241 1.167-0.681 1.53l-7.406 6.238c-1.521 1.287-2.362 3.523-2.362 5.454h23.366v-2.092c0-1.512 0.561-3.12 0.762-4.652C42.175 34.947 42.293 31.686 42.293 28.466zM25.013 18.487c-0.842 0-1.562 0.725-1.562 1.568 0 0.846 0.72 1.57 1.562 1.57 0.882 0 1.602-0.724 1.602-1.57C26.614 19.212 25.895 18.487 25.013 18.487zM94.786 50.003v45.003H50V50.003H94.786zM59.178 61.752c0 3.855 1.473 5.844 5.434 5.844h14.915c3.963 0 5.475-1.988 5.475-5.844v-5.335H79.84v5.298h-5.155v-5.298h-5.231v5.298h-5.152v-5.298h-5.123V61.752zM63.872 69.389v14.367h16.55V69.389H63.872zM85.892 87.958l-5.394-2.222H63.911l-4.851 2.222v2.023h26.831V87.958z" fill="#3237fc" data-fill-palette-color="accent"></path></svg></g></svg></g></svg></g><defs></defs></svg><rect width="395.52" height="154.19633632279994" fill="none" stroke="none" visibility="hidden"></rect></g></svg></g></svg>