<svg xmlns="http://www.w3.org/2000/svg" version="1.1" xmlns:xlink="http://www.w3.org/1999/xlink" xmlns:svgjs="http://svgjs.dev/svgjs" width="2000" height="808" viewBox="0 0 2000 808"><g transform="matrix(1,0,0,1,-1.2121212121212466,-0.6797978979340087)"><svg viewBox="0 0 396 160" data-background-color="#b5c3f4" preserveAspectRatio="xMidYMid meet" height="808" width="2000" xmlns="http://www.w3.org/2000/svg" xmlns:xlink="http://www.w3.org/1999/xlink"><g id="tight-bounds" transform="matrix(1,0,0,1,0.2400000000000091,0.13461344513544304)"><svg viewBox="0 0 395.52 159.7307731097291" height="159.7307731097291" width="395.52"><g><svg viewBox="0 0 497.7094798469846 200.99999999999997" height="159.7307731097291" width="395.52"><g><rect width="8.414827797569792" height="200.99999999999997" x="164.41582142357103" y="0" fill="#076130" opacity="1" stroke-width="0" stroke="transparent" fill-opacity="1" class="rect-qz-0" data-fill-palette-color="primary" rx="1%" id="qz-0" data-palette-color="#076130"></rect></g><g transform="matrix(1,0,0,1,194.85899424095703,0.4999999999999858)"><svg viewBox="0 0 302.8504856060276 200" height="200" width="302.8504856060276"><g id="textblocktransform"><svg viewBox="0 0 302.8504856060276 200" height="200" width="302.8504856060276" id="textblock"><g><svg viewBox="0 0 302.8504856060276 200" height="200" width="302.8504856060276"><g transform="matrix(1,0,0,1,0,0)"><svg width="302.8504856060276" viewBox="1.6100000000000003 -32.64 135.81999999999996 86.69" height="200" data-palette-color="#076130"><svg></svg><svg></svg><g class="wordmark-text-0" data-fill-palette-color="primary" id="text-0"><path d="M5.74 0.07c-1.16 0-1.74-0.317-1.74-0.95v0-30.81c0-0.633 0.58-0.95 1.74-0.95v0h0.17c1.173 0 1.76 0.317 1.76 0.95v0 11.72c0.847-0.86 1.837-1.573 2.97-2.14 1.14-0.56 2.353-0.84 3.64-0.84v0c1.827 0 3.433 0.513 4.82 1.54 1.393 1.027 2.09 2.85 2.09 5.47v0 15.06c0 0.633-0.577 0.95-1.73 0.95v0h-0.17c-1.173 0-1.76-0.317-1.76-0.95v0-14.7c0-1.313-0.373-2.347-1.12-3.1-0.753-0.747-1.853-1.12-3.3-1.12v0c-0.96 0-1.843 0.227-2.65 0.68-0.807 0.46-1.473 0.953-2 1.48-0.527 0.527-0.79 0.823-0.79 0.89v0 15.87c0 0.633-0.587 0.95-1.76 0.95v0zM36.99 0.24c-3.273 0-5.77-0.98-7.49-2.94-1.713-1.96-2.57-4.81-2.57-8.55v0c0-3.747 0.87-6.633 2.61-8.66 1.74-2.027 4.223-3.04 7.45-3.04v0c3.187 0 5.627 1.007 7.32 3.02 1.693 2.007 2.54 4.9 2.54 8.68v0c0 3.753-0.833 6.607-2.5 8.56-1.667 1.953-4.12 2.93-7.36 2.93zM36.87-2.88c2.113 0 3.673-0.687 4.68-2.06 1.013-1.38 1.52-3.51 1.52-6.39v0c0-2.893-0.507-5.033-1.52-6.42-1.007-1.38-2.567-2.07-4.68-2.07v0c-2.1 0-3.647 0.687-4.64 2.06-0.993 1.373-1.49 3.517-1.49 6.43v0c0 2.9 0.49 5.033 1.47 6.4 0.987 1.367 2.54 2.05 4.66 2.05zM54.91 0.07c-0.62 0-1.07-0.077-1.35-0.23-0.273-0.153-0.41-0.393-0.41-0.72v0-15.23c0-1.893-0.09-3.257-0.27-4.09-0.18-0.84-0.27-1.3-0.27-1.38v0c0-0.36 0.273-0.617 0.82-0.77 0.547-0.153 1.063-0.23 1.55-0.23v0c0.393 0 0.687 0.207 0.88 0.62 0.193 0.413 0.363 0.997 0.51 1.75v0l0.12 0.51c1.547-2.167 3.223-3.25 5.03-3.25v0c0.833 0 1.46 0.15 1.88 0.45 0.427 0.3 0.64 0.703 0.64 1.21v0c0 0.487-0.087 1.003-0.26 1.55-0.167 0.547-0.367 0.82-0.6 0.82v0c-0.113 0-0.317-0.05-0.61-0.15v0c-0.26-0.113-0.52-0.197-0.78-0.25-0.26-0.06-0.593-0.09-1-0.09v0c-0.667 0-1.297 0.197-1.89 0.59-0.593 0.387-1.093 0.817-1.5 1.29-0.407 0.473-0.61 0.733-0.61 0.78v0 15.87c0 0.327-0.14 0.567-0.42 0.72-0.273 0.153-0.703 0.23-1.29 0.23v0zM73.54 0.42c-1.227 0-2.367-0.157-3.42-0.47-1.06-0.307-1.903-0.683-2.53-1.13-0.627-0.453-0.94-0.85-0.94-1.19v0c0-0.16 0.087-0.42 0.26-0.78 0.167-0.36 0.37-0.68 0.61-0.96 0.233-0.287 0.447-0.43 0.64-0.43v0c0.053 0 0.2 0.08 0.44 0.24v0c0.653 0.427 1.343 0.787 2.07 1.08 0.72 0.293 1.587 0.44 2.6 0.44v0c2.827 0 4.24-1.173 4.24-3.52v0c0-0.667-0.133-1.227-0.4-1.68-0.267-0.46-0.713-0.863-1.34-1.21-0.627-0.353-1.487-0.693-2.58-1.02v0c-1.56-0.453-2.777-0.973-3.65-1.56-0.867-0.587-1.48-1.273-1.84-2.06-0.36-0.787-0.54-1.743-0.54-2.87v0c0-1.207 0.307-2.29 0.92-3.25 0.607-0.96 1.46-1.707 2.56-2.24 1.1-0.54 2.343-0.81 3.73-0.81v0c0.96 0 1.883 0.09 2.77 0.27 0.887 0.18 1.6 0.413 2.14 0.7 0.547 0.28 0.82 0.577 0.82 0.89v0c0 0.227-0.077 0.53-0.23 0.91-0.153 0.387-0.343 0.72-0.57 1-0.227 0.287-0.43 0.43-0.61 0.43v0c-0.033 0-0.237-0.1-0.61-0.3-0.38-0.207-0.857-0.397-1.43-0.57-0.58-0.167-1.22-0.25-1.92-0.25v0c-1.107 0-2.023 0.247-2.75 0.74-0.72 0.5-1.08 1.163-1.08 1.99v0c0 0.98 0.26 1.763 0.78 2.35 0.52 0.587 1.383 1.067 2.59 1.44v0c1.853 0.567 3.27 1.137 4.25 1.71 0.973 0.567 1.667 1.26 2.08 2.08 0.42 0.827 0.63 1.907 0.63 3.24v0c0 1.267-0.343 2.417-1.03 3.45-0.687 1.033-1.613 1.847-2.78 2.44-1.173 0.6-2.467 0.9-3.88 0.9zM96.07 0.24c-3.6 0-6.273-0.94-8.02-2.82-1.753-1.88-2.63-4.757-2.63-8.63v0c0-3.84 0.857-6.757 2.57-8.75 1.707-1.993 4.22-2.99 7.54-2.99v0c2.967 0 5.2 0.96 6.7 2.88 1.507 1.92 2.26 4.737 2.26 8.45v0c0 0.16-0.083 0.383-0.25 0.67-0.173 0.287-0.377 0.54-0.61 0.76-0.24 0.22-0.44 0.33-0.6 0.33v0h-13.7c0.18 2.42 0.803 4.19 1.87 5.31 1.067 1.113 2.673 1.67 4.82 1.67v0c1.207 0 2.243-0.147 3.11-0.44 0.873-0.293 1.717-0.65 2.53-1.07v0c0.08-0.033 0.203-0.093 0.37-0.18 0.16-0.08 0.273-0.12 0.34-0.12v0c0.18 0 0.387 0.143 0.62 0.43 0.233 0.287 0.437 0.603 0.61 0.95 0.173 0.353 0.26 0.61 0.26 0.77v0c0 0.36-0.36 0.76-1.08 1.2-0.713 0.44-1.67 0.813-2.87 1.12-1.193 0.307-2.473 0.46-3.84 0.46zM89.33-12.99h11.28c0-4.553-1.733-6.83-5.2-6.83v0c-3.727 0-5.753 2.277-6.08 6.83z" fill="#076130" fill-rule="nonzero" stroke="none" stroke-width="1" stroke-linecap="butt" stroke-linejoin="miter" stroke-miterlimit="10" stroke-dasharray="" stroke-dashoffset="0" font-family="none" font-weight="none" font-size="none" text-anchor="none" style="mix-blend-mode: normal" data-fill-palette-color="primary" opacity="1"></path><path transform="translate(0,44.85)" d="M10.25 0.24c-1.447 0-2.74-0.437-3.88-1.31-1.14-0.88-1.71-2.437-1.71-4.67v0-13.84h-2.17c-0.307 0-0.53-0.103-0.67-0.31-0.14-0.2-0.21-0.527-0.21-0.98v0-0.54c0-0.453 0.07-0.783 0.21-0.99 0.14-0.207 0.363-0.31 0.67-0.31v0h2.17l0.52-4.54c0.027-0.633 0.49-0.95 1.39-0.95v0h0.41c0.46 0 0.793 0.077 1 0.23 0.213 0.16 0.32 0.4 0.32 0.72v0 4.54h3.64c0.307 0 0.53 0.103 0.67 0.31 0.14 0.207 0.21 0.537 0.21 0.99v0 0.54c0 0.453-0.07 0.78-0.21 0.98-0.14 0.207-0.363 0.31-0.67 0.31v0h-3.64v13.5c0 1.187 0.207 2.017 0.62 2.49 0.42 0.473 0.987 0.71 1.7 0.71v0c0.553 0 0.98-0.033 1.28-0.1 0.3-0.067 0.5-0.1 0.6-0.1v0c0.26 0 0.477 0.263 0.65 0.79 0.167 0.52 0.25 0.933 0.25 1.24v0c0 0.86-1.05 1.29-3.15 1.29zM20.53 0.07c-0.62 0-1.067-0.077-1.34-0.23-0.28-0.153-0.42-0.393-0.42-0.72v0-15.23c0-1.893-0.087-3.257-0.26-4.09-0.18-0.84-0.27-1.3-0.27-1.38v0c0-0.36 0.273-0.617 0.82-0.77 0.54-0.153 1.057-0.23 1.55-0.23v0c0.387 0 0.677 0.207 0.87 0.62 0.2 0.413 0.373 0.997 0.52 1.75v0l0.12 0.51c1.547-2.167 3.223-3.25 5.03-3.25v0c0.827 0 1.453 0.15 1.88 0.45 0.42 0.3 0.63 0.703 0.63 1.21v0c0 0.487-0.083 1.003-0.25 1.55-0.173 0.547-0.373 0.82-0.6 0.82v0c-0.113 0-0.317-0.05-0.61-0.15v0c-0.26-0.113-0.52-0.197-0.78-0.25-0.26-0.06-0.593-0.09-1-0.09v0c-0.667 0-1.3 0.197-1.9 0.59-0.593 0.387-1.093 0.817-1.5 1.29-0.407 0.473-0.61 0.733-0.61 0.78v0 15.87c0 0.327-0.137 0.567-0.41 0.72-0.28 0.153-0.713 0.23-1.3 0.23v0zM40.28 0.24c-2.213 0-4.003-0.543-5.37-1.63-1.367-1.093-2.05-2.713-2.05-4.86v0c0-2.26 0.693-3.963 2.08-5.11 1.38-1.153 3.067-1.897 5.06-2.23 1.993-0.333 4.417-0.523 7.27-0.57v0-2.05c0-1.093-0.373-1.97-1.12-2.63-0.74-0.653-1.957-0.98-3.65-0.98v0c-1.28 0-2.407 0.15-3.38 0.45-0.967 0.3-1.873 0.66-2.72 1.08v0c-0.36 0.18-0.58 0.27-0.66 0.27v0c-0.193 0-0.407-0.14-0.64-0.42-0.24-0.287-0.447-0.61-0.62-0.97-0.167-0.36-0.25-0.62-0.25-0.78v0c0-0.373 0.387-0.78 1.16-1.22 0.773-0.44 1.787-0.807 3.04-1.1 1.253-0.293 2.563-0.44 3.93-0.44v0c2.72 0 4.827 0.593 6.32 1.78 1.5 1.193 2.25 2.863 2.25 5.01v0 9.74c0 1.887 0.083 3.25 0.25 4.09 0.173 0.84 0.26 1.3 0.26 1.38v0c0 0.353-0.273 0.61-0.82 0.77-0.547 0.153-1.053 0.23-1.52 0.23v0c-0.393 0-0.683-0.22-0.87-0.66-0.187-0.44-0.37-1.073-0.55-1.9v0l-0.1-0.49c-0.893 0.993-1.947 1.783-3.16 2.37-1.213 0.58-2.593 0.87-4.14 0.87zM40.48-2.91c1.433 0 2.653-0.26 3.66-0.78 1.007-0.52 2.05-1.26 3.13-2.22v0-5.13c-2.153 0.02-3.92 0.11-5.3 0.27-1.387 0.167-2.6 0.58-3.64 1.24-1.04 0.66-1.56 1.68-1.56 3.06v0c0 1.153 0.313 2.037 0.94 2.65 0.627 0.607 1.55 0.91 2.77 0.91zM65.06 0.24c-1.693 0-3.173-0.49-4.44-1.47-1.267-0.987-2.247-2.36-2.94-4.12-0.693-1.753-1.04-3.747-1.04-5.98v0c0-2.453 0.37-4.557 1.11-6.31 0.74-1.747 1.777-3.07 3.11-3.97 1.34-0.893 2.88-1.34 4.62-1.34v0c1.253 0 2.363 0.187 3.33 0.56 0.967 0.373 1.923 0.92 2.87 1.64v0-10.94c0-0.633 0.57-0.95 1.71-0.95v0h0.19c1.16 0 1.74 0.317 1.74 0.95v0 25.27c0 1.887 0.09 3.25 0.27 4.09 0.173 0.84 0.26 1.3 0.26 1.38v0c0 0.353-0.27 0.61-0.81 0.77-0.547 0.153-1.057 0.23-1.53 0.23v0c-0.327 0-0.587-0.157-0.78-0.47-0.193-0.307-0.327-0.617-0.4-0.93-0.073-0.32-0.193-0.87-0.36-1.65v0c-2.067 2.16-4.37 3.24-6.91 3.24zM65.82-2.91c0.96 0 1.957-0.26 2.99-0.78 1.033-0.52 1.99-1.26 2.87-2.22v0-11.89c-1.56-1.3-3.343-1.95-5.35-1.95v0c-1.933 0.047-3.393 0.753-4.38 2.12-0.987 1.367-1.48 3.353-1.48 5.96v0c0 2.8 0.46 4.96 1.38 6.48 0.92 1.52 2.243 2.28 3.97 2.28zM84.45-28.17c-1.16 0-1.74-0.32-1.74-0.96v0-2.56c0-0.633 0.58-0.95 1.74-0.95v0h0.51c1.173 0 1.76 0.317 1.76 0.95v0 2.56c0 0.64-0.587 0.96-1.76 0.96v0zM84.62 0.07c-1.153 0-1.73-0.317-1.73-0.95v0-20.95c0-0.633 0.577-0.95 1.73-0.95v0h0.17c1.173 0 1.76 0.317 1.76 0.95v0 20.95c0 0.633-0.587 0.95-1.76 0.95v0zM95.92 0.07c-0.613 0-1.06-0.077-1.34-0.23-0.273-0.153-0.41-0.393-0.41-0.72v0-15.23c0-1.893-0.09-3.257-0.27-4.09-0.18-0.84-0.27-1.3-0.27-1.38v0c0-0.36 0.273-0.617 0.82-0.77 0.54-0.153 1.057-0.23 1.55-0.23v0c0.407 0 0.707 0.22 0.9 0.66 0.193 0.44 0.337 0.887 0.43 1.34 0.087 0.453 0.147 0.747 0.18 0.88v0c0.913-1.027 1.967-1.823 3.16-2.39 1.2-0.573 2.41-0.86 3.63-0.86v0c2.213 0 3.94 0.623 5.18 1.87 1.247 1.247 1.87 2.96 1.87 5.14v0 15.06c0 0.327-0.137 0.567-0.41 0.72-0.28 0.153-0.72 0.23-1.32 0.23v0h-0.2c-0.587 0-1.017-0.077-1.29-0.23-0.28-0.153-0.42-0.393-0.42-0.72v0-14.7c0-1.333-0.383-2.37-1.15-3.11-0.773-0.74-1.86-1.11-3.26-1.11v0c-0.98 0-1.963 0.273-2.95 0.82-0.98 0.547-1.83 1.29-2.55 2.23v0 15.87c0 0.327-0.137 0.567-0.41 0.72-0.28 0.153-0.713 0.23-1.3 0.23v0zM125.59 9.2c-2.767 0-4.957-0.43-6.57-1.29-1.613-0.86-2.42-2.22-2.42-4.08v0c0-1.267 0.367-2.373 1.1-3.32 0.733-0.94 1.687-1.647 2.86-2.12v0l0.05-0.1c-0.573-0.44-1.01-0.943-1.31-1.51-0.3-0.573-0.45-1.25-0.45-2.03v0c0-1.887 0.813-3.4 2.44-4.54v0c-1.22-0.587-2.147-1.413-2.78-2.48-0.64-1.067-0.96-2.267-0.96-3.6v0c0-1.333 0.33-2.537 0.99-3.61 0.66-1.073 1.633-1.92 2.92-2.54 1.287-0.62 2.833-0.93 4.64-0.93v0c0.96 0 1.813 0.08 2.56 0.24v0h7.89c0.307 0 0.53 0.103 0.67 0.31 0.14 0.207 0.21 0.537 0.21 0.99v0 0.54c0 0.453-0.07 0.78-0.21 0.98-0.14 0.207-0.363 0.31-0.67 0.31v0c-1.093 0-2.103-0.04-3.03-0.12v0l-0.05 0.07c0.373 0.52 0.653 1.103 0.84 1.75 0.187 0.64 0.28 1.31 0.28 2.01v0c0 1.333-0.327 2.537-0.98 3.61-0.66 1.08-1.63 1.927-2.91 2.54-1.28 0.62-2.83 0.93-4.65 0.93v0c-1.367 0.047-2.397 0.3-3.09 0.76-0.693 0.453-1.04 1.2-1.04 2.24v0c0 0.767 0.25 1.353 0.75 1.76 0.493 0.407 1.117 0.693 1.87 0.86 0.747 0.16 1.787 0.313 3.12 0.46v0l1.27 0.15c1.353 0.18 2.483 0.423 3.39 0.73 0.913 0.307 1.667 0.82 2.26 1.54 0.593 0.713 0.89 1.697 0.89 2.95v0c0 2.1-0.837 3.717-2.51 4.85-1.68 1.127-4.137 1.69-7.37 1.69zM126.05-11.67c1.593 0 2.863-0.327 3.81-0.98 0.94-0.647 1.41-1.71 1.41-3.19v0c0-2.8-1.74-4.2-5.22-4.2v0c-3.433 0-5.15 1.4-5.15 4.2v0c0 1.48 0.467 2.543 1.4 3.19 0.94 0.653 2.19 0.98 3.75 0.98zM126.05 6.25c2.02 0 3.517-0.263 4.49-0.79 0.98-0.533 1.47-1.337 1.47-2.41v0c0-0.7-0.26-1.24-0.78-1.62-0.527-0.387-1.167-0.657-1.92-0.81-0.76-0.153-1.757-0.293-2.99-0.42v0c-0.847-0.1-1.543-0.19-2.09-0.27-0.547-0.087-1.047-0.203-1.5-0.35v0c-1.92 0.82-2.88 2.003-2.88 3.55v0c0 2.08 2.067 3.12 6.2 3.12z" fill="#076130" fill-rule="nonzero" stroke="none" stroke-width="1" stroke-linecap="butt" stroke-linejoin="miter" stroke-miterlimit="10" stroke-dasharray="" stroke-dashoffset="0" font-family="none" font-weight="none" font-size="none" text-anchor="none" style="mix-blend-mode: normal" data-fill-palette-color="primary" opacity="1"></path></g></svg></g></svg></g></svg></g></svg></g><g transform="matrix(1,0,0,1,0,0.4999999999999858)"><svg viewBox="0 0 142.38747640375482 200" height="200" width="142.38747640375482"><g><svg xmlns="http://www.w3.org/2000/svg" xmlns:xlink="http://www.w3.org/1999/xlink" version="1.1" x="0" y="0" viewBox="16.348975227344244 1.7489999999999999 69.13073847418413 97.10227362715044" enable-background="new 0 0 100 100" xml:space="preserve" height="200" width="142.38747640375482" class="icon-icon-0" data-fill-palette-color="accent" id="icon-0"><path fill-rule="evenodd" clip-rule="evenodd" d="M34.811 16.502c-0.271-0.275-0.542-0.551-0.814-0.826l0.048 0.05c-0.002-0.125-0.003-0.25-0.005-0.375l-0.054 0.043c0.408-0.128 0.282-0.276 0.017-0.43l0.037 0.039c0.935-0.595 1.871-1.186 2.802-1.785 0.768-0.494 0.088-0.368-0.186-0.441-0.424-0.113-0.272-0.26-0.012-0.41 1.043-0.599 2.089-1.193 3.125-1.806 0.281-0.167 0.601-0.344 0.772-0.603 0.395-0.595 0.842-0.784 1.549-0.576 0.28 0.082 0.648-0.143 0.977-0.228-0.176-0.202-0.388-0.382-0.521-0.609-0.24-0.41-0.458-0.837-0.637-1.277-0.156-0.38-0.246-0.788-0.365-1.184 0.391-0.026 0.784-0.042 1.174-0.082 0.653-0.067 1.306-0.15 1.958-0.227 0.023 0.035 0.047 0.07 0.071 0.106-0.038-0.022-0.076-0.044-0.113-0.066-0.013-0.114 0.004-0.244-0.043-0.341-0.356-0.72-0.36-0.718 0.48-0.76l-0.045-0.05c0.126 0.013 0.253 0.026 0.379 0.039l0.027-0.024c0.678-0.034 0.567-0.395 0.349-0.819-0.12-0.233-0.424-0.525 0.141-0.629 0.26-0.048 0.51-0.146 0.765-0.223-0.233-0.052-0.465-0.121-0.701-0.15-0.179-0.022-0.373 0.044-0.543 0.002-0.167-0.042-0.313-0.17-0.468-0.26 0.202-0.258 0.397-0.729 0.608-0.736 0.78-0.029 1.567 0.078 2.347 0.173 0.23 0.028 0.438 0.241 0.669 0.274 0.938 0.135 1.403 0.8 1.815 1.539 0.646-0.522 0.246-1.621 1.105-2.014 0.152-0.07 0.354-0.031 0.534-0.043L52.009 1.75c-0.068 0.271-0.266 0.593-0.182 0.803 0.247 0.619 0.689 1.166 0.894 1.794 0.174 0.534 0.368 0.727 0.952 0.818C54.226 5.25 54.87 5.565 55.22 5.99c1.535 1.862 3.63 2.589 5.854 3.107 0.296 0.069 0.598 0.169 0.896 0.167 0.976-0.005 1.651 0.236 1.583 1.427-0.02 0.329 0.267 0.672 0.395 1.015 0.412 1.101 0.089 2.056-0.951 2.609-0.196 0.105-0.539-0.095-0.816-0.102-0.326-0.008-0.688-0.037-0.973 0.085-0.342 0.146-0.404 0.485 0.014 0.637 0.322 0.118 0.78 0 0.759 0.546-0.016 0.414 0.035 0.891-0.151 1.225-0.326 0.584-1.858 0.887-2.291 0.448-1.262-1.278-2.669-0.73-4.05-0.396-0.585 0.142-1.115 0.5-1.697 0.664-1.422 0.4-1.937 1.683-1.043 2.812 0.45 0.569 0.942 1.146 1.528 1.559 1.444 1.02 2.175 2.484 2.491 4.106 0.257 1.314 1.05 2.168 2.11 2.522 1.557 0.521 2.296 1.712 3.122 2.904 0.139 0.2 0.229 0.434 0.366 0.636 0.92 1.368 1.638 1.4 2.659 0.126 0.076-0.096 0.145-0.202 0.236-0.281 1.676-1.431 3.079-3.076 4.108-5.039 0.395-0.752 1.066-1.082 1.932-1.183 1.392-0.163 2.771-0.438 4.151-0.68 0.602-0.105 1.242-0.143 1.783-0.391 0.879-0.403 1.764-0.387 2.687-0.372 1.008 0.016 1.921 0.484 3.027 0.278 0.721-0.134 1.626 0.642 2.418 1.066 0.115 0.062 0.148 0.476 0.071 0.667-0.722 1.802-2.605 2.315-4.345 1.249-0.258-0.158-0.822-0.259-0.943-0.122-0.802 0.911-1.795 0.708-2.696 0.432-0.603-0.184-1.055-0.068-1.575 0.106-2.5 0.835-4.252 2.408-5.279 4.892-0.954 2.305-2.12 4.521-3.19 6.778-0.325 0.686-0.924 0.804-1.608 0.986-1.459 0.387-2.872 0.957-4.291 1.484-0.388 0.144-0.486 0.354-0.18 0.808 0.978 1.45 1.854 2.967 2.79 4.447 0.353 0.558 0.766 1.078 1.134 1.628 0.436 0.651 0.379 1.089-0.302 1.284-0.929 0.264-1.905 0.5-2.859 0.493-1.521-0.011-2.046-0.729-1.915-2.43 0.036-0.473 0.118-0.715-0.477-0.878-0.981-0.269-1.492-0.993-1.468-2.054 0.003-0.142-0.134-0.408-0.204-0.407-0.16 0.001-0.344 0.103-0.474 0.215-0.674 0.582-0.743 1.377-0.695 2.185 0.089 1.507-0.285 2.842-1.146 4.109-0.61 0.9-1.083 1.921-1.461 2.945-1.31 3.555-3.836 5.911-7.259 7.299-0.837 0.34-0.691 0.657-0.438 1.163 0.188 0.376 0.458 0.714 0.715 1.051 0.372 0.484 0.842 0.91 1.132 1.438 0.525 0.953 0.948 1.963 1.414 2.948-0.735 1.185-0.535 2.747-1.583 3.822-0.373 0.382-0.699 0.88-0.863 1.385-0.492 1.511-1.463 2.68-2.571 3.736-1.142 1.09-1.604 2.366-1.599 3.933 0.008 2.854 0.994 5.318 2.538 7.679 1.016 1.553 2.223 2.822 3.745 3.841 0.419 0.281 1.186 2.566 1.03 2.966-0.042 0.106-0.13 0.208-0.222 0.277-0.824 0.62-2.72 0.367-3.359-0.457-0.482-0.621-0.926-1.272-1.417-1.887-0.169-0.211-0.426-0.497-0.646-0.499-1.624-0.017-1.953-1.184-2.268-2.412-0.331-1.291-0.645-2.592-1.069-3.853-0.448-1.33-1.266-2.454-2.063-3.617-0.837-1.221-1.31-2.714-1.812-4.134-0.218-0.617 0.001-1.244 0.497-1.845 0.928-1.125 1.67-2.401 2.52-3.593 0.34-0.478 0.129-0.789-0.208-1.1-0.087-0.08-0.203-0.142-0.315-0.182-1.848-0.66-3.25-1.878-4.422-3.423-0.454-0.598-0.646-0.546-0.983 0.163-0.207 0.437-0.341 0.909-0.493 1.371-0.248 0.754-0.416 1.545-1.292 1.886-0.2 0.077-0.423 0.303-0.48 0.505-0.33 1.159-1.138 1.998-1.862 2.893-0.282 0.349-0.315 0.862 0.091 0.871 1.233 0.028 1.444 1.212 2.149 1.794 1.052 0.868 1.813 2.089 2.694 3.162 0.066 0.081 0.102 0.188 0.152 0.281-0.159 0.008-0.348 0.076-0.471 0.013-0.386-0.198-0.747-0.446-1.117-0.675-0.165 0.737 0.535 0.853 0.867 1.244 0.344 0.405 0.613 0.881 0.868 1.351 0.064 0.119-0.047 0.334-0.078 0.505-0.117-0.092-0.245-0.173-0.348-0.278-0.214-0.218-0.396-0.472-0.632-0.661-0.094-0.075-0.295-0.018-0.447-0.02 0 0.158-0.041 0.331 0.006 0.475 0.184 0.566-0.007 1.168-0.142 1.635-0.243 0.846-0.836 1.589-1.277 2.378-0.214 0.383-0.292 0.117-0.457-0.056-0.286-0.299-0.576-0.673-0.941-0.804-2.089-0.748-2.095-0.728-2.949-1.965-0.116-0.169-0.249-0.326-0.374-0.489-0.095 0.215-0.284 0.434-0.271 0.642 0.112 1.885 0.072 3.807 1.071 5.519 0.342 0.587 0.533 1.172 0.529 1.889-0.004 0.823 0.292 1.549 0.812 2.32 0.621 0.921 0.687 2.23 0.913 3.387 0.034 0.175-0.363 0.435-0.561 0.655-0.735 0-1.471 0-2.206 0-0.163-0.177-0.31-0.371-0.489-0.529-0.994-0.883-1.851-1.791-1.12-3.279 0.296-0.604 0.066-1.014-0.577-1.288-0.287-0.122-0.649-0.498-0.655-0.767-0.02-0.897-0.118-1.896 0.224-2.676 0.585-1.338 0.411-2.626 0.198-3.936-0.083-0.515-0.397-1.015-0.692-1.465-0.277-0.423-0.767-0.462-1.089-0.102-0.216 0.241-0.222 0.67-0.322 1.015-0.14-0.271-0.281-0.542-0.421-0.813-0.145 0.088-0.322 0.146-0.427 0.269-0.237 0.273-0.408 0.61-0.669 0.854-0.088 0.082-0.368-0.043-0.561-0.074 0.292-0.49-0.34-1.016-0.281-1.094 0.71-0.933 0.006-1.788-0.36-2.357-0.753-1.172-1.983-2.043-2.07-3.604-0.715-0.388-1.066-0.974-1.014-1.799 0.003-0.055-0.182-0.187-0.254-0.17-0.443 0.099-0.412 0.103-0.512-0.309-0.269-1.107 0.005-2.393-1.044-3.25 0-0.367 0-0.735 0-1.103 0.08-0.09 0.217-0.172 0.23-0.271 0.302-2.169 1.478-3.824 3.062-5.241 0.038-0.03 0.078-0.058 0.113-0.091 0.018-0.017 0.026-0.044 0.039-0.066-0.034 0.068-0.068 0.137-0.102 0.205-0.479 0.168-0.957 0.337-1.435 0.506-0.274-0.792 0.473-0.995 0.804-1.452 0.199-0.275 0.886-0.66 0.032-1.015 0.093-0.172 0.144-0.415 0.288-0.501 0.522-0.313 1.062-0.604 1.62-0.847 0.754-0.326 1.298-0.846 1.787-1.504 0.614-0.827 0.957-1.605 0.605-2.678-0.573-1.752-0.231-3.426 0.381-5.168 0.556-1.584 1.362-3.118 1.475-4.867 0.031-0.477 0.487-0.966 0.837-1.374 0.973-1.135 1.933-2.223 3.308-3 2.227-1.258 4.033-3.095 5.613-5.115 0.247-0.315 0.405-0.793 0.401-1.194-0.014-1.282 0.462-2.382 1.055-3.469 0.066-0.122-0.073-0.357-0.116-0.54-0.168 0.057-0.337 0.115-0.505 0.172l-0.002-0.002c0.198-0.799-0.526-1.128-0.936-1.454-0.475-0.377-0.566-0.718-0.441-1.198 0.186-0.714 0.418-1.417 0.63-2.125 0.052-0.028 0.108-0.051 0.152-0.088 0.022-0.018 0.023-0.063 0.034-0.095-0.045 0.077-0.091 0.154-0.136 0.231-0.267 0.075-0.684 0.069-0.774 0.238-0.373 0.696-0.922 0.507-1.475 0.41l0.04 0.042c0.441-0.724 0.935-1.421 1.304-2.18 0.221-0.454 0.062-0.797-0.589-0.761-0.689 0.039-0.976-0.322-0.639-0.806 0.547-0.787 1.188-1.518 1.86-2.204 0.357-0.364 0.817-0.747 0.487-1.178-0.157-0.205-0.861-0.017-1.311 0.043-0.162 0.021-0.293 0.211-0.458 0.278-0.305 0.123-0.624 0.21-0.938 0.312 0.1-0.324 0.141-0.684 0.311-0.965 0.652-1.083 1.223-2.163 0.813-3.498-0.047-0.153 0.089-0.391 0.191-0.559 0.44-0.724 0.914-1.428 1.346-2.157 0.42-0.708-0.156-0.634-0.564-0.677L34.811 16.502z" fill="#e60707" data-fill-palette-color="accent"></path><path fill-rule="evenodd" clip-rule="evenodd" fill="none" d="M16.368 73.457c1.049 0.857 0.775 2.143 1.044 3.25 0.1 0.411 0.069 0.407 0.512 0.309 0.072-0.017 0.258 0.115 0.254 0.17-0.052 0.825 0.299 1.411 1.014 1.799 0.086 1.561 1.316 2.432 2.07 3.604 0.366 0.569 1.07 1.425 0.36 2.357-0.059 0.078 0.573 0.604 0.281 1.094 0.192 0.031 0.473 0.156 0.561 0.074 0.261-0.243 0.433-0.58 0.669-0.854 0.105-0.122 0.282-0.181 0.427-0.269 0.14 0.271 0.281 0.541 0.421 0.813 0.1-0.345 0.106-0.773 0.322-1.015 0.322-0.36 0.812-0.321 1.089 0.102 0.295 0.45 0.609 0.95 0.692 1.465 0.212 1.31 0.387 2.598-0.198 3.936-0.342 0.78-0.244 1.778-0.224 2.676 0.006 0.269 0.369 0.645 0.655 0.767 0.644 0.274 0.874 0.685 0.577 1.288-0.73 1.488 0.126 2.396 1.12 3.279 0.179 0.158 0.326 0.353 0.489 0.529-3.8 0-7.6-0.02-11.399 0.02-0.639 0.007-0.757-0.117-0.755-0.755C16.377 89.883 16.368 81.67 16.368 73.457z"></path><path fill-rule="evenodd" clip-rule="evenodd" d="M52.053 1.793c-0.015-0.015-0.029-0.029-0.044-0.044L52.053 1.793z" fill="#e60707" data-fill-palette-color="accent"></path><path fill-rule="evenodd" clip-rule="evenodd" d="M45.07 4.714c0.077-0.097 0.153-0.194 0.23-0.292 0.044 0.085 0.087 0.171 0.131 0.256l-0.027 0.024c-0.126-0.013-0.253-0.025-0.379-0.039L45.07 4.714z" fill="#e60707" data-fill-palette-color="accent"></path><path fill-rule="evenodd" clip-rule="evenodd" fill="none" d="M45.025 4.664c0.126 0.013 0.253 0.026 0.379 0.039C45.278 4.69 45.152 4.677 45.025 4.664z"></path><path fill-rule="evenodd" clip-rule="evenodd" fill="none" d="M44.634 5.815c0.038 0.022 0.075 0.044 0.113 0.066-0.024-0.036-0.047-0.071-0.071-0.106L44.634 5.815z"></path><path fill-rule="evenodd" clip-rule="evenodd" fill="none" d="M35.16 30.116c0.045-0.077 0.091-0.154 0.136-0.231-0.011 0.033-0.012 0.077-0.034 0.095-0.044 0.037-0.101 0.06-0.152 0.088L35.16 30.116z"></path><path fill-rule="evenodd" clip-rule="evenodd" fill="none" d="M19.709 66.891c0.034-0.068 0.068-0.137 0.102-0.205-0.013 0.022-0.021 0.05-0.039 0.066-0.035 0.033-0.075 0.061-0.113 0.091L19.709 66.891z"></path></svg></g></svg></g></svg></g><defs></defs></svg><rect width="395.52" height="159.7307731097291" fill="none" stroke="none" visibility="hidden"></rect></g></svg></g></svg>